<svg xmlns="http://www.w3.org/2000/svg" viewBox="0 0 284.1 358.9" enable-background="new 0 0 284.1 358.9"><style type="text/css">.st0{fill:none;stroke:#87724F;stroke-miterlimit:10;} .st1{fill:#87724F;}</style><path class="st0" d="M279.7 333.5v-306.7c-10.5 0-19-8.5-19-19v-.3h-237.3v.3c0 10.4-8.3 18.8-18.7 19v306.7c10.3.2 18.7 8.6 18.7 19h237.3c0-10.5 8.5-19 19-19z"/><path class="st1" d="M12.1 12.3c2.4 2.4 2.1 3.2 1.4 3.9-.7.7-1.5 1-3.9-1.4l-4.9-7.3s5 2.4 7.4 4.8z"/><circle class="st1" cx="8.7" cy="17.5" r="1.7"/><circle class="st1" cx="14.8" cy="11.4" r="1.7"/><path class="st1" d="M272.3 12.3c-2.4 2.4-2.1 3.2-1.4 3.9.7.7 1.5 1 3.9-1.4l4.9-7.4s-5 2.5-7.4 4.9z"/><circle class="st1" cx="275.7" cy="17.5" r="1.7"/><circle class="st1" cx="269.6" cy="11.4" r="1.7"/><path class="st1" d="M272.3 347.6c-2.4-2.4-2.1-3.2-1.4-3.9.7-.7 1.5-1 3.9 1.4l4.9 7.4s-5-2.5-7.4-4.9z"/><circle class="st1" cx="275.7" cy="342.4" r="1.7"/><circle class="st1" cx="269.6" cy="348.5" r="1.7"/><path class="st1" d="M12.1 347.6c2.4-2.4 2.1-3.2 1.4-3.9-.7-.7-1.5-1-3.9 1.4l-4.9 7.4s5-2.5 7.4-4.9z"/><circle class="st1" cx="8.7" cy="342.4" r="1.7"/><circle class="st1" cx="14.8" cy="348.5" r="1.7"/></svg>