<svg xmlns="http://www.w3.org/2000/svg" viewBox="0 0 245.6 243.4" enable-background="new 0 0 245.6 243.4"><style type="text/css">.st0{fill:#BB9D6E;}</style><path class="st0" d="M41.7 236.4c2.9.3 5.4-1.7 5.9-4.5-.3 3 2 5.7 5 6 3 .3 5.8-2 6-5 .3-3.3 1.1-11.5 1.4-14.5h.2c19.8 1.6 42.1-13.1 46.5-44.4 1.9-13.5-1.6-27-9.8-37.9-5.6-7.4-12.9-13-21.3-16.4.6-1.2 1.1-2.5 1.3-3.9.5-3.6-.4-7.1-2.6-10-2.2-2.9-5.3-4.7-8.9-5.2-6.6-.9-13 3.2-14.9 9.7-.2.6-.3 1.2-.4 1.8-.2 1.4-.1 2.8.1 4.1-1.5.2-2.9.4-4.3.7l-3.5-9.6c3.5-2.5 6.3-6.1 7.5-10.5.6-2.1.8-4.3.7-6.6l-1.6-24.5c-.1-2.3-.7-4.5-1.6-6.5l13.1-10.8c.3.2.6.4.9.5 4.6 2.3 9.9 2.6 14.8 1l23.2-7.9c6-2 10.7-6.9 12.4-13v-.1l11.5-.2c1.9 4.7 5.6 8.7 10.6 10.7l22.7 9.3c4.7 1.9 9.9 1.9 14.6.1l5.1 6.5c-1.1 1.6-1.9 3.4-2.5 5.3-.7 2.6-.9 5.3-.6 7.9l3.3 24.3c1 7.3 5.9 13.1 12.4 15.5l-.3 8.1c-17.1.6-33.5 9.6-42.6 25.4-2.9 5-5 10-6.4 14.8-6.1 21.4 2 39.9 15.5 48.8l.2.1c-1.6 2.6-6 9.7-7.8 12.5-1.6 2.6-.9 6 1.7 7.7 2.6 1.6 6 .9 7.6-1.7-.2.4-.4.7-.5 1.1-.7 2.3.2 4.9 2.4 6.2 2.6 1.6 6 .9 7.6-1.7.7-1.1 6.1-9.7 8-12.8.1 0 .2 0 .2.1 17.7 8.9 43.9 3.7 59.8-23.6 11.9-20.6 7.8-46-8.3-62 1-.9 1.9-2 2.7-3.2.6-1 1-2 1.3-3.1 1.7-5.9-.9-12.3-6.2-15.4-6.4-3.7-14.7-1.5-18.5 4.9-.6 1-1 2-1.3 3.1l-.2.8c-1.4-.4-2.8-.7-4.2-1l.3-8.2c6.9-1.5 12.5-6.7 14.4-13.6.7-2.6.9-5.3.6-7.9l-2.9-24.7c-1.5-10.6-11.2-18-21.8-16.6-1.8.2-3.5.7-5 1.4l-4.9-6.3c.8-1.1 1.5-2.4 2-3.7 4.1-10-.7-21.3-10.5-25.3l-22.8-9.2c-4.8-2-10.1-2-14.8 0-4.8 2-8.5 5.7-10.5 10.5-.3.7-.5 1.4-.7 2.1l-.3 1.4-10.8.2c0-.1-.1-.2-.1-.4-1.7-4.9-5.1-8.9-9.8-11.1-4.6-2.3-9.9-2.6-14.8-1l-23.3 8c-6 2-10.7 6.9-12.4 13-1.1 3.8-1 7.8.3 11.5.3.9.7 1.8 1.1 2.6l-12.5 10.5c-3.5-2.3-7.6-3.4-11.8-3.1-8.2.5-15.1 6.2-17.4 14-.6 2.1-.8 4.3-.7 6.6l1.6 24.5c.7 10.4 9.6 18.4 20 18.1l3.5 9.4c-13.6 6-24.3 17.8-28.5 32.7-.6 2.2-1.1 4.5-1.5 6.9-4.4 31.3 13 51.6 32.4 55.5.1 0 .2 0 .2.1-.4 3.6-1.4 13.8-1.5 15.1-.3 3 2 5.7 5 6zm183.6-49.1c-9.4 16.2-27.9 28-45.1 19.3-5.3-2.7-11.5-1.2-14.3 3.4 2.6-4.7.8-10.8-4.2-14.1-16.1-10.6-15.1-32.6-5.7-48.8 11.1-19.1 35.6-25.6 54.7-14.5 19.1 11.1 25.6 35.6 14.6 54.7zm-9.9-67.6c.7-1.2 2.1-1.5 3.3-.9 1 .6 1.4 1.7 1.1 2.7l-.2.6c-.7 1.1-2.1 1.5-3.3.9-1.2-.7-1.6-2.2-.9-3.3zm-14.4-55.2l3.3 24.3c.2 1.1.1 2.3-.2 3.4-.5 1.9-1.8 3.5-3.3 4.6l.3-7.9c.1-3.1-2.3-5.6-5.4-5.7-2.6-.1-4.8 1.6-5.5 4-.1.4-.2.9-.2 1.3l-.2 6.6c-.9-1.1-1.6-2.5-1.8-4.1l-3.3-24.3c-.1-.6-.1-1.2-.1-1.7l3.8 4.8c1.9 2.4 5.4 2.8 7.8.9 2.4-1.9 2.8-5.4.9-7.8l-4.4-5.6c4.1 0 7.7 3 8.3 7.2zm-62.6-50.9c2-.9 4.3-.9 6.3 0l22.7 9.3c3.6 1.5 5.6 5.2 5 8.9l-2.7-3.4c-1.9-2.4-5.4-2.8-7.8-.9-1 .7-1.6 1.7-1.9 2.8-.5 1.7-.2 3.5 1 5l2.8 3.5c-.9 0-1.8-.2-2.7-.6l-22.7-9.3c-.5-.2-1-.5-1.4-.7l4.2-.1c3.1-.1 5.5-2.6 5.4-5.7-.1-3.1-2.6-5.5-5.7-5.4l-6.6.1c1-1.6 2.4-2.8 4.1-3.5zm-70.9 9.9l23.2-7.9c2.1-.7 4.3-.6 6.3.4.9.5 1.7 1.1 2.4 1.8l-4.4.1c-2.5.1-4.6 1.7-5.2 4-.1.5-.2 1.1-.2 1.6.1 3.1 2.6 5.5 5.7 5.4l4.3-.1c-.9 1.1-2.1 1.9-3.5 2.4l-23.2 7.9c-.5.2-1.1.3-1.6.4l4-3.3c2.4-1.9 2.7-5.4.8-7.8-1.9-2.4-5.4-2.7-7.8-.8l-6.3 5.2c-.6-3.9 1.8-8 5.5-9.3zm-44.3 68.4l-1.6-24.5c-.3-4.5 3.3-8.5 7.7-8.8h1.4l-3.7 3.1c-.9.7-1.5 1.7-1.8 2.8-.5 1.7-.2 3.6 1.1 5.1 1.9 2.4 5.4 2.7 7.8.8l4.1-3.4 1.6 24c.1 1 0 1.9-.3 2.8-.2.8-.6 1.5-1 2.2l-2-5.4c-1.1-2.9-4.2-4.4-7.1-3.3-1.7.6-3 2-3.4 3.7-.3 1.1-.3 2.3.1 3.4l1.6 4.4c-2.5-1.4-4.3-3.9-4.5-6.9zm38.6 23.4c-.2-.3-.6-.9-.5-1.8.2-1.3 1.4-2.2 2.7-2 .9.1 1.4.6 1.6.9.2.3.6.9.5 1.8 0 .1 0 .2-.1.3-.3 1.1-1.5 1.9-2.7 1.7-.8-.1-1.3-.7-1.5-.9zm-45.3 45.9c3.1-21.9 23.4-37.1 45.2-34.1 10.6 1.5 20 7 26.4 15.6 6.4 8.5 9.2 19.1 7.7 29.7-3.4 24.5-20 36.1-34.6 34.9-5.9-.5-11.1 3.2-12 8.5.6-5.3-3.4-10.3-9.2-11.5-18.8-3.8-26.1-24.6-23.5-43.1z" id="Your_Icon_2_"/></svg>