<svg xmlns="http://www.w3.org/2000/svg" viewBox="0 0 256 146" enable-background="new 0 0 256 146"><style type="text/css">.st0{fill:#BB9D6E;}</style><path class="st0" d="M192.3 83.7c12-3.6 24.5-8.5 36.5-15 19.2-11.2 29 .4 21.9 18-6.1 16.6-38.4 47.5-66.5 54.6-10.8-7.6-32-12.8-56.4-12.9-24.4.1-45.6 5.3-56.4 12.9-28.2-7.1-60.5-38-66.6-54.6-7.1-17.6 2.7-29.2 21.9-18 12 6.6 24.5 11.4 36.5 15.1 25.8 7.8 49.4 9.7 61.8 9.7h6.8c12.4-.2 35.5-2.3 60.5-9.8z"/><path class="st0" d="M157.5 5.6c10 5 26.4 52.3 32.7 71.6-24.3 7-46.4 9-58.4 9.1h-6.8c-12.1 0-34.8-1.8-59.8-9.1 6.4-19.3 22.8-66.6 32.8-71.6 11.5-5.8 21.4 3.8 29.4 4.7h-1.5c.6.1 1.3.1 1.9 0 .7.1 1.3.1 1.9 0h-1.5c7.9-.9 17.8-10.5 29.3-4.7zm-3.9 36.7c0-2.1-1.7-3.8-3.8-3.8-1.9 0-3.5 1.4-3.8 3.3l-11.7-1.7-5.2-10.4c1.4-.6 2.4-1.9 2.4-3.5 0-2.1-1.7-3.8-3.8-3.8-2.1 0-3.8 1.7-3.8 3.8 0 1.6 1 3 2.4 3.5l-5.1 10.4-11.7 1.7c-.2-1.9-1.8-3.3-3.8-3.3-2.1 0-3.8 1.7-3.8 3.8 0 2.1 1.7 3.8 3.8 3.8 1.3 0 2.4-.6 3.1-1.6l8.3 8.1-2.1 12.2c-.5-.2-1-.3-1.5-.3-2.1 0-3.8 1.7-3.8 3.8 0 2.1 1.7 3.8 3.8 3.8 2.1 0 3.8-1.7 3.8-3.8 0-.8-.2-1.5-.7-2.1l11.1-5.8 11.1 5.8c-.4.6-.7 1.3-.7 2.1 0 2.1 1.7 3.8 3.8 3.8 2.1 0 3.8-1.7 3.8-3.8s-1.7-3.8-3.8-3.8c-.5 0-1 .1-1.5.3l-2.1-12.2 8.3-8.1c.7 1 1.8 1.6 3.1 1.6 2.2 0 3.9-1.7 3.9-3.8z" id="XMLID_1_"/></svg>