<svg xmlns="http://www.w3.org/2000/svg" viewBox="0 0 226.4 256" enable-background="new 0 0 226.4 256"><style type="text/css">.st0{fill:#87724F;}</style><path class="st0" d="M214 176.5c-1.8 0-3.3.6-4.7 1.5l-29.7-50 29.7-50c1.4.8 3 1.5 4.7 1.5 5.2 0 9.4-4.2 9.4-9.5 0-5.2-4.2-9.4-9.4-9.4s-9.4 4.2-9.4 9.4v.1l-58 .7-28.4-50.7c2.9-1.6 4.9-4.6 4.9-8.1 0-5.2-4.2-9.4-9.4-9.4s-9.4 4.2-9.4 9.4c0 3.5 2 6.5 4.9 8.1l-28.6 50.7-58-.7v-.1c0-5.2-4.2-9.4-9.4-9.4s-9.4 4.2-9.4 9.4 4.2 9.5 9.4 9.5c1.8 0 3.3-.6 4.7-1.5l29.7 50-29.7 50c-1.4-.8-3-1.5-4.7-1.5-5.2 0-9.4 4.2-9.4 9.4s4.2 9.5 9.4 9.5 9.4-4.2 9.4-9.5v-.1l58-.7 28.4 50.7c-2.9 1.6-4.9 4.6-4.9 8.1 0 5.2 4.2 9.4 9.4 9.4s9.4-4.2 9.4-9.4c0-3.5-2-6.5-4.9-8.1l28.4-50.7 58 .7v.1c0 5.2 4.2 9.5 9.4 9.5s9.4-4.2 9.4-9.5c.3-5.1-4-9.4-9.2-9.4z" id="Your_Icon"/></svg>